<?xml version="1.0" encoding="UTF-8"?>
<svg xmlns="http://www.w3.org/2000/svg" xmlns:xlink="http://www.w3.org/1999/xlink" width="16px" height="16px" viewBox="0 0 16 16" version="1.1">
<g id="surface1">
<path style=" stroke:none;fill-rule:nonzero;fill:rgb(0%,0%,0%);fill-opacity:1;" d="M 6 12.5 C 5.867188 12.5 5.738281 12.449219 5.644531 12.355469 C 5.550781 12.261719 5.496094 12.132812 5.496094 12 C 5.496094 11.867188 5.550781 11.738281 5.644531 11.644531 L 9.296875 8 L 5.644531 4.355469 C 5.449219 4.160156 5.449219 3.839844 5.644531 3.644531 C 5.839844 3.449219 6.160156 3.449219 6.355469 3.644531 L 10.355469 7.644531 C 10.449219 7.738281 10.503906 7.867188 10.503906 8 C 10.503906 8.132812 10.449219 8.261719 10.355469 8.355469 L 6.355469 12.355469 C 6.261719 12.449219 6.132812 12.5 6 12.5 Z M 6 12.5 "/>
</g>
</svg>
