
<svg xmlns="http://www.w3.org/2000/svg" xmlns:xlink="http://www.w3.org/1999/xlink" width="20px" height="16px" viewBox="0 0 20 16" version="1.1">
<g id="surface1">
<path style="fill:none;stroke-width:2;stroke-linecap:round;stroke-linejoin:miter;stroke:rgb(30.980392%,30.980392%,30.980392%);stroke-opacity:1;stroke-miterlimit:10;" d="M 28.501562 25.602539 L 5.498437 25.602539 C 3.4 25.602539 1.7 23.895264 1.7 21.785889 L 1.7 5.418457 C 1.7 3.309082 3.4 1.601807 5.498437 1.601807 L 28.501562 1.601807 C 30.6 1.601807 32.3 3.309082 32.3 5.418457 L 32.3 21.785889 C 32.399609 23.895264 30.6 25.602539 28.501562 25.602539 Z M 28.501562 25.602539 " transform="matrix(0.588235,0,0,0.592593,0,0)"/>
<path style="fill:none;stroke-width:2;stroke-linecap:round;stroke-linejoin:round;stroke:rgb(30.980392%,30.980392%,30.980392%);stroke-opacity:1;stroke-miterlimit:10;" d="M 17 14.956787 L 2.603125 3.605713 " transform="matrix(0.588235,0,0,0.592593,0,0)"/>
<path style="fill:none;stroke-width:2;stroke-linecap:round;stroke-linejoin:round;stroke:rgb(30.980392%,30.980392%,30.980392%);stroke-opacity:1;stroke-miterlimit:10;" d="M 31.396875 3.605713 L 17 14.956787 " transform="matrix(0.588235,0,0,0.592593,0,0)"/>
</g>
</svg>
