<?xml version="1.0" encoding="UTF-8"?>
<svg xmlns="http://www.w3.org/2000/svg" xmlns:xlink="http://www.w3.org/1999/xlink" width="16px" height="16px" viewBox="0 0 16 16" version="1.1">
<g id="surface1">
<path style=" stroke:none;fill-rule:nonzero;fill:rgb(0%,0%,0%);fill-opacity:1;" d="M 9.632812 15.890625 C 9.554688 15.894531 9.507812 15.898438 9.457031 15.898438 C 8.386719 15.898438 7.320312 15.898438 6.253906 15.902344 C 6.101562 15.902344 6.0625 15.863281 6.0625 15.710938 C 6.066406 13.226562 6.066406 10.734375 6.066406 8.246094 C 6.066406 8.179688 6.066406 8.117188 6.066406 8.03125 C 5.484375 8.03125 4.917969 8.03125 4.34375 8.03125 C 4.34375 7.144531 4.34375 6.273438 4.34375 5.375 C 4.402344 5.375 4.460938 5.375 4.511719 5.375 C 4.980469 5.375 5.449219 5.371094 5.917969 5.378906 C 6.039062 5.378906 6.070312 5.34375 6.070312 5.226562 C 6.0625 4.53125 6.0625 3.832031 6.070312 3.132812 C 6.070312 2.648438 6.148438 2.171875 6.375 1.730469 C 6.695312 1.109375 7.207031 0.707031 7.851562 0.457031 C 8.375 0.25 8.929688 0.175781 9.484375 0.164062 C 10.390625 0.152344 11.296875 0.160156 12.203125 0.15625 C 12.289062 0.15625 12.355469 0.152344 12.355469 0.273438 C 12.351562 1.132812 12.351562 1.992188 12.351562 2.851562 C 12.351562 2.859375 12.351562 2.867188 12.335938 2.910156 C 12.285156 2.910156 12.226562 2.910156 12.164062 2.910156 C 11.601562 2.910156 11.039062 2.90625 10.476562 2.910156 C 10.152344 2.910156 9.890625 3.039062 9.726562 3.324219 C 9.675781 3.410156 9.644531 3.519531 9.644531 3.617188 C 9.632812 4.148438 9.644531 4.679688 9.636719 5.210938 C 9.636719 5.335938 9.675781 5.371094 9.796875 5.371094 C 10.578125 5.367188 11.359375 5.367188 12.140625 5.367188 C 12.203125 5.367188 12.261719 5.367188 12.367188 5.367188 C 12.257812 6.261719 12.152344 7.136719 12.042969 8.023438 C 11.230469 8.023438 10.441406 8.023438 9.632812 8.023438 C 9.632812 10.648438 9.632812 13.261719 9.632812 15.890625 Z M 9.632812 15.890625 "/>
</g>
</svg>
