<?xml version="1.0" encoding="UTF-8"?>
<svg xmlns="http://www.w3.org/2000/svg" xmlns:xlink="http://www.w3.org/1999/xlink" width="16px" height="16px" viewBox="0 0 16 16" version="1.1">
<g id="surface1">
<path style=" stroke:none;fill-rule:nonzero;fill:rgb(0.392157%,0%,0.784314%);fill-opacity:1;" d="M 10.625 6.488281 C 10.71875 6.738281 10.769531 6.996094 10.769531 7.257812 C 10.769531 7.515625 10.71875 7.773438 10.625 8.023438 C 10.527344 8.273438 10.378906 8.5 10.175781 8.703125 C 9.972656 8.90625 9.746094 9.058594 9.496094 9.160156 C 9.246094 9.261719 8.988281 9.3125 8.71875 9.3125 C 8.453125 9.3125 8.195312 9.261719 7.945312 9.160156 C 7.691406 9.058594 7.464844 8.90625 7.265625 8.703125 C 7.0625 8.5 6.910156 8.273438 6.808594 8.023438 C 6.707031 7.773438 6.65625 7.515625 6.65625 7.257812 C 6.65625 6.996094 6.707031 6.738281 6.808594 6.488281 C 6.910156 6.238281 7.0625 6.011719 7.265625 5.808594 C 7.464844 5.605469 7.691406 5.457031 7.945312 5.359375 C 8.195312 5.265625 8.453125 5.214844 8.71875 5.214844 C 8.988281 5.214844 9.246094 5.265625 9.496094 5.359375 C 9.746094 5.457031 9.972656 5.605469 10.175781 5.808594 C 10.378906 6.011719 10.527344 6.238281 10.625 6.488281 Z M 16 8 C 16 8.734375 15.902344 9.445312 15.710938 10.128906 C 15.519531 10.8125 15.25 11.449219 14.902344 12.039062 C 14.558594 12.632812 14.140625 13.171875 13.65625 13.65625 C 13.171875 14.140625 12.632812 14.558594 12.039062 14.902344 C 11.449219 15.25 10.8125 15.519531 10.128906 15.710938 C 9.445312 15.902344 8.734375 16 8 16 C 7.265625 16 6.554688 15.902344 5.871094 15.710938 C 5.1875 15.519531 4.550781 15.25 3.960938 14.902344 C 3.367188 14.558594 2.828125 14.140625 2.34375 13.65625 C 1.859375 13.171875 1.441406 12.632812 1.097656 12.039062 C 0.75 11.449219 0.480469 10.8125 0.289062 10.128906 C 0.0976562 9.445312 0 8.734375 0 8 C 0 7.265625 0.0976562 6.554688 0.289062 5.871094 C 0.480469 5.1875 0.75 4.550781 1.097656 3.960938 C 1.441406 3.367188 1.859375 2.828125 2.34375 2.34375 C 2.828125 1.859375 3.367188 1.441406 3.960938 1.097656 C 4.550781 0.75 5.1875 0.480469 5.871094 0.289062 C 6.554688 0.0976562 7.265625 0 8 0 C 9.097656 0 10.136719 0.210938 11.113281 0.632812 C 12.089844 1.054688 12.9375 1.625 13.65625 2.34375 C 14.375 3.0625 14.945312 3.910156 15.367188 4.886719 C 15.789062 5.863281 16 6.902344 16 8 Z M 12.398438 7.265625 C 12.398438 6.792969 12.3125 6.332031 12.136719 5.878906 C 11.960938 5.425781 11.691406 5.019531 11.328125 4.65625 C 10.964844 4.292969 10.558594 4.023438 10.105469 3.847656 C 9.652344 3.671875 9.1875 3.585938 8.71875 3.585938 C 8.25 3.585938 7.789062 3.671875 7.335938 3.847656 C 6.882812 4.023438 6.476562 4.292969 6.113281 4.65625 C 5.800781 4.964844 5.558594 5.308594 5.382812 5.6875 C 5.207031 6.066406 5.097656 6.460938 5.054688 6.871094 C 5.011719 7.28125 5.039062 7.691406 5.128906 8.097656 C 5.21875 8.5 5.375 8.878906 5.601562 9.230469 L 4 10.832031 C 3.808594 11.023438 3.710938 11.253906 3.710938 11.519531 C 3.710938 11.785156 3.808594 12.011719 4 12.191406 C 4.179688 12.382812 4.40625 12.480469 4.679688 12.480469 C 4.953125 12.480469 5.179688 12.382812 5.359375 12.191406 L 7.023438 10.527344 C 7.375 10.710938 7.742188 10.832031 8.121094 10.894531 C 8.5 10.960938 8.878906 10.964844 9.257812 10.910156 C 9.632812 10.859375 10.003906 10.742188 10.359375 10.566406 C 10.71875 10.390625 11.039062 10.160156 11.328125 9.871094 C 11.691406 9.507812 11.960938 9.101562 12.136719 8.648438 C 12.3125 8.195312 12.398438 7.734375 12.398438 7.265625 Z M 12.398438 7.265625 "/>
</g>
</svg>
