<?xml version="1.0" encoding="UTF-8"?>
<svg xmlns="http://www.w3.org/2000/svg" xmlns:xlink="http://www.w3.org/1999/xlink" width="18px" height="16px" viewBox="0 0 18 16" version="1.1">
<g id="surface1">
<path style=" stroke:none;fill-rule:nonzero;fill:rgb(0%,0%,0%);fill-opacity:1;" d="M 16.878906 6.855469 C 17.503906 6.855469 18.003906 7.367188 18.003906 8 C 18.003906 8.632812 17.503906 9.144531 16.878906 9.144531 L 16.746094 9.144531 L 15.738281 15.054688 C 15.640625 15.597656 15.171875 16 14.628906 16 L 3.375 16 C 2.828125 15.996094 2.363281 15.597656 2.269531 15.054688 L 1.257812 9.144531 L 1.125 9.144531 C 0.5 9.144531 0 8.632812 0 8 C 0 7.367188 0.5 6.855469 1.125 6.855469 Z M 4.261719 14 C 4.574219 13.972656 4.804688 13.699219 4.78125 13.382812 L 4.5 9.667969 C 4.476562 9.355469 4.203125 9.117188 3.894531 9.144531 C 3.585938 9.167969 3.347656 9.445312 3.375 9.757812 L 3.65625 13.472656 C 3.683594 13.769531 3.929688 14 4.21875 14 Z M 7.875 13.429688 L 7.875 9.714844 C 7.875 9.402344 7.621094 9.144531 7.3125 9.144531 C 7.007812 9.144531 6.75 9.402344 6.75 9.714844 L 6.75 13.429688 C 6.75 13.742188 7.007812 14 7.3125 14 C 7.621094 14 7.875 13.742188 7.875 13.429688 Z M 11.253906 13.429688 L 11.253906 9.714844 C 11.253906 9.402344 10.996094 9.144531 10.691406 9.144531 C 10.382812 9.144531 10.128906 9.402344 10.128906 9.714844 L 10.128906 13.429688 C 10.128906 13.742188 10.382812 14 10.691406 14 C 10.996094 14 11.253906 13.742188 11.253906 13.429688 Z M 14.347656 13.472656 L 14.628906 9.757812 C 14.65625 9.445312 14.417969 9.167969 14.109375 9.144531 C 13.800781 9.117188 13.53125 9.355469 13.503906 9.667969 L 13.222656 13.382812 C 13.199219 13.699219 13.429688 13.972656 13.742188 14 L 13.785156 14 C 14.074219 14 14.320312 13.769531 14.347656 13.472656 Z M 4.183594 2.605469 L 3.367188 6.285156 L 2.207031 6.285156 L 3.09375 2.347656 C 3.320312 1.304688 4.234375 0.566406 5.285156 0.570312 L 6.75 0.570312 C 6.75 0.257812 7.007812 0 7.3125 0 L 10.691406 0 C 10.996094 0 11.253906 0.257812 11.253906 0.570312 L 12.71875 0.570312 C 13.769531 0.566406 14.683594 1.304688 14.910156 2.347656 L 15.796875 6.285156 L 14.636719 6.285156 L 13.820312 2.605469 C 13.703125 2.085938 13.246094 1.714844 12.71875 1.714844 L 11.253906 1.714844 C 11.253906 2.027344 10.996094 2.285156 10.691406 2.285156 L 7.3125 2.285156 C 7.007812 2.285156 6.75 2.027344 6.75 1.714844 L 5.285156 1.714844 C 4.757812 1.714844 4.308594 2.078125 4.183594 2.605469 Z M 4.183594 2.605469 "/>
</g>
</svg>
