<?xml version="1.0" encoding="UTF-8"?>
<svg xmlns="http://www.w3.org/2000/svg" xmlns:xlink="http://www.w3.org/1999/xlink" width="16px" height="16px" viewBox="0 0 16 16" version="1.1">
<g id="surface1">
<path style=" stroke:none;fill-rule:nonzero;fill:rgb(0%,0%,0%);fill-opacity:1;" d="M 15.007812 7.023438 C 15.273438 7.023438 15.535156 7.113281 15.707031 7.316406 C 15.882812 7.519531 15.996094 7.753906 15.996094 8.011719 C 15.996094 8.273438 15.910156 8.539062 15.707031 8.710938 C 15.503906 8.882812 15.269531 9 15.007812 9 L 14.894531 9 L 13.992188 14.179688 C 13.960938 14.410156 13.84375 14.617188 13.640625 14.757812 C 13.4375 14.902344 13.234375 14.992188 13 14.992188 L 2.996094 14.992188 C 2.765625 14.992188 2.53125 14.902344 2.355469 14.757812 C 2.179688 14.613281 2.066406 14.410156 2.007812 14.179688 L 1.105469 9.003906 L 0.992188 9.003906 C 0.726562 9.003906 0.464844 8.914062 0.292969 8.710938 C 0.121094 8.507812 0 8.273438 0 8.015625 C 0 7.757812 0.0859375 7.492188 0.289062 7.320312 C 0.492188 7.144531 0.726562 7.027344 0.988281 7.027344 C 0.992188 7.023438 15.007812 7.023438 15.007812 7.023438 Z M 3.78125 13.25 C 3.929688 13.25 4.042969 13.191406 4.132812 13.074219 C 4.21875 12.960938 4.277344 12.84375 4.246094 12.726562 L 4.015625 9.46875 C 4.015625 9.320312 3.957031 9.207031 3.839844 9.117188 C 3.726562 9.03125 3.609375 8.972656 3.492188 9.003906 C 3.34375 9.003906 3.226562 9.0625 3.140625 9.179688 C 3.054688 9.292969 2.992188 9.410156 3.023438 9.527344 L 3.289062 12.789062 C 3.289062 12.902344 3.347656 13.019531 3.460938 13.105469 C 3.550781 13.195312 3.664062 13.253906 3.8125 13.253906 C 3.808594 13.25 3.78125 13.25 3.78125 13.25 Z M 7.007812 12.757812 L 7.007812 9.527344 C 7.007812 9.382812 6.949219 9.265625 6.863281 9.179688 C 6.773438 9.089844 6.660156 9.03125 6.511719 9.03125 C 6.367188 9.03125 6.25 9.089844 6.164062 9.179688 C 6.074219 9.265625 6.015625 9.382812 6.015625 9.527344 L 6.015625 12.789062 C 6.015625 12.933594 6.074219 13.050781 6.164062 13.136719 C 6.25 13.226562 6.367188 13.285156 6.511719 13.285156 C 6.660156 13.285156 6.773438 13.226562 6.863281 13.136719 C 6.953125 13.046875 7.007812 12.902344 7.007812 12.757812 Z M 10.007812 12.757812 L 10.007812 9.527344 C 10.007812 9.382812 9.945312 9.265625 9.859375 9.179688 C 9.773438 9.089844 9.65625 9.03125 9.507812 9.03125 C 9.363281 9.03125 9.246094 9.089844 9.160156 9.179688 C 9.070312 9.265625 9.011719 9.382812 9.011719 9.527344 L 9.011719 12.789062 C 9.011719 12.933594 9.070312 13.050781 9.160156 13.136719 C 9.246094 13.226562 9.363281 13.285156 9.507812 13.285156 C 9.65625 13.285156 9.773438 13.226562 9.859375 13.136719 C 9.949219 13.046875 10.007812 12.902344 10.007812 12.757812 Z M 12.742188 12.816406 L 13.003906 9.554688 C 13.003906 9.410156 12.976562 9.292969 12.886719 9.207031 C 12.800781 9.117188 12.683594 9.03125 12.539062 9.03125 C 12.390625 9.03125 12.273438 9.058594 12.1875 9.148438 C 12.101562 9.234375 12.011719 9.351562 12.011719 9.496094 L 11.75 12.757812 C 11.75 12.902344 11.777344 13.019531 11.867188 13.105469 C 11.953125 13.195312 12.070312 13.253906 12.214844 13.253906 L 12.242188 13.253906 C 12.359375 13.253906 12.476562 13.195312 12.59375 13.105469 C 12.683594 13.046875 12.742188 12.929688 12.742188 12.816406 Z M 3.726562 3.304688 L 2.996094 6.53125 L 1.976562 6.53125 L 2.761719 3.070312 C 2.851562 2.601562 3.082031 2.226562 3.460938 1.933594 C 3.835938 1.644531 4.242188 1.496094 4.710938 1.496094 L 6.019531 1.496094 C 6.019531 1.351562 6.078125 1.234375 6.164062 1.148438 C 6.253906 1.058594 6.367188 1 6.515625 1 L 9.511719 1 C 9.660156 1 9.773438 1.058594 9.863281 1.148438 C 9.949219 1.234375 10.007812 1.351562 10.007812 1.496094 L 11.320312 1.496094 C 11.785156 1.496094 12.191406 1.644531 12.570312 1.933594 C 12.945312 2.226562 13.148438 2.601562 13.265625 3.070312 L 14.050781 6.5 L 13.03125 6.5 L 12.304688 3.273438 C 12.242188 3.039062 12.128906 2.867188 11.953125 2.71875 C 11.777344 2.570312 11.574219 2.488281 11.34375 2.488281 L 10.035156 2.488281 C 10.035156 2.632812 9.976562 2.75 9.886719 2.835938 C 9.800781 2.925781 9.683594 2.984375 9.539062 2.984375 L 6.484375 2.984375 C 6.335938 2.984375 6.222656 2.925781 6.132812 2.835938 C 6.046875 2.75 5.988281 2.632812 5.988281 2.488281 L 4.679688 2.488281 C 4.445312 2.488281 4.242188 2.574219 4.070312 2.71875 C 3.898438 2.867188 3.78125 3.070312 3.726562 3.304688 Z M 3.726562 3.304688 "/>
</g>
</svg>
