<?xml version="1.0" encoding="UTF-8"?>
<svg xmlns="http://www.w3.org/2000/svg" xmlns:xlink="http://www.w3.org/1999/xlink" width="16px" height="16px" viewBox="0 0 16 16" version="1.1">
<g id="surface1">
<path style=" stroke:none;fill-rule:nonzero;fill:rgb(0%,0%,0%);fill-opacity:1;" d="M 7.992188 7.992188 C 9.09375 7.992188 10.035156 7.601562 10.816406 6.820312 C 11.597656 6.039062 11.988281 5.097656 11.988281 3.996094 C 11.988281 2.894531 11.597656 1.949219 10.816406 1.171875 C 10.035156 0.390625 9.09375 0 7.992188 0 C 6.886719 0 5.945312 0.390625 5.167969 1.171875 C 4.386719 1.949219 3.996094 2.894531 3.996094 3.996094 C 3.996094 5.097656 4.386719 6.039062 5.167969 6.820312 C 5.945312 7.601562 6.886719 7.992188 7.992188 7.992188 Z M 7.992188 7.992188 "/>
<path style=" stroke:none;fill-rule:nonzero;fill:rgb(0%,0%,0%);fill-opacity:1;" d="M 15.28125 12.210938 C 15.257812 11.859375 15.207031 11.484375 15.136719 11.078125 C 15.0625 10.671875 14.96875 10.292969 14.859375 9.949219 C 14.746094 9.601562 14.597656 9.261719 14.410156 8.933594 C 14.222656 8.605469 14.007812 8.324219 13.765625 8.089844 C 13.523438 7.859375 13.226562 7.671875 12.875 7.535156 C 12.527344 7.394531 12.140625 7.324219 11.714844 7.324219 C 11.652344 7.324219 11.507812 7.398438 11.277344 7.550781 C 11.050781 7.699219 10.792969 7.863281 10.503906 8.046875 C 10.214844 8.230469 9.839844 8.398438 9.378906 8.546875 C 8.917969 8.695312 8.457031 8.773438 7.992188 8.773438 C 7.527344 8.773438 7.0625 8.695312 6.601562 8.546875 C 6.140625 8.398438 5.765625 8.230469 5.476562 8.046875 C 5.191406 7.863281 4.933594 7.699219 4.703125 7.550781 C 4.472656 7.398438 4.328125 7.324219 4.265625 7.324219 C 3.84375 7.324219 3.457031 7.394531 3.105469 7.535156 C 2.753906 7.671875 2.457031 7.859375 2.214844 8.089844 C 1.972656 8.324219 1.757812 8.605469 1.570312 8.933594 C 1.382812 9.261719 1.234375 9.601562 1.125 9.949219 C 1.011719 10.292969 0.921875 10.671875 0.847656 11.078125 C 0.773438 11.484375 0.726562 11.859375 0.703125 12.210938 C 0.679688 12.5625 0.664062 12.921875 0.664062 13.289062 C 0.664062 14.121094 0.917969 14.777344 1.425781 15.261719 C 1.933594 15.742188 2.605469 15.984375 3.445312 15.984375 L 12.539062 15.984375 C 13.378906 15.984375 14.050781 15.742188 14.558594 15.261719 C 15.0625 14.777344 15.316406 14.121094 15.316406 13.289062 C 15.316406 12.921875 15.304688 12.5625 15.28125 12.210938 Z M 15.28125 12.210938 "/>
</g>
</svg>
